<?xml version="1.0" encoding="UTF-8"?>
<svg version="1.1" xmlns="http://www.w3.org/2000/svg" width="180" height="180">
<path d="M0 0 C2.37890625 2.015625 2.37890625 2.015625 3.37890625 5.015625 C4.03890625 5.345625 4.69890625 5.675625 5.37890625 6.015625 C6.03890625 6.345625 6.69890625 6.675625 7.37890625 7.015625 C7.70890625 8.005625 8.03890625 8.995625 8.37890625 10.015625 C9.26449219 10.41007812 9.26449219 10.41007812 10.16796875 10.8125 C13.36132064 12.55022506 14.87965653 15.25781542 16.75390625 18.265625 C17.14529785 18.89041748 17.53668945 19.51520996 17.93994141 20.15893555 C30.26492448 40.33698278 33.40543055 62.87067454 27.97412109 85.85888672 C25.10751232 96.24593427 19.99812361 105.56137708 13.37890625 114.015625 C12.858125 114.76328125 12.33734375 115.5109375 11.80078125 116.28125 C11.3315625 116.85359375 10.86234375 117.4259375 10.37890625 118.015625 C9.71890625 118.015625 9.05890625 118.015625 8.37890625 118.015625 C8.11078125 118.655 7.84265625 119.294375 7.56640625 119.953125 C6.37890625 122.015625 6.37890625 122.015625 3.37890625 123.015625 C3.37890625 123.675625 3.37890625 124.335625 3.37890625 125.015625 C2.71890625 125.015625 2.05890625 125.015625 1.37890625 125.015625 C1.37890625 125.675625 1.37890625 126.335625 1.37890625 127.015625 C-16.86241138 140.87680861 -37.9808468 147.18448663 -60.8046875 144.6640625 C-63.77569051 144.21746587 -66.68759031 143.66247899 -69.62109375 143.015625 C-70.41515625 142.84417969 -71.20921875 142.67273438 -72.02734375 142.49609375 C-83.27460493 139.59055128 -96.46404383 133.39925964 -104.62109375 125.015625 C-104.62109375 124.355625 -104.62109375 123.695625 -104.62109375 123.015625 C-105.26046875 122.7475 -105.89984375 122.479375 -106.55859375 122.203125 C-108.62109375 121.015625 -108.62109375 121.015625 -109.62109375 118.015625 C-110.21148437 117.75265625 -110.801875 117.4896875 -111.41015625 117.21875 C-114.60358757 115.48098172 -116.12163737 112.77336034 -117.99609375 109.765625 C-118.38748535 109.14155762 -118.77887695 108.51749023 -119.18212891 107.87451172 C-131.11984547 88.34764311 -134.75004853 66.37013738 -129.71875 44.02734375 C-126.63909265 31.98814841 -120.65245899 20.49450375 -112.62109375 11.015625 C-111.63109375 10.685625 -110.64109375 10.355625 -109.62109375 10.015625 C-109.29109375 9.355625 -108.96109375 8.695625 -108.62109375 8.015625 C-107.62109375 6.015625 -107.62109375 6.015625 -104.62109375 5.015625 C-104.358125 4.42523437 -104.09515625 3.83484375 -103.82421875 3.2265625 C-102.08645047 0.03313118 -99.37882909 -1.48491862 -96.37109375 -3.359375 C-95.74702637 -3.7507666 -95.12295898 -4.1421582 -94.47998047 -4.54541016 C-63.77846901 -23.31472484 -28.89919626 -20.28262609 0 0 Z " fill="#A469DD" transform="translate(140.62109375,25.984375)"/>
<path d="M0 0 C4.93757128 3.99394654 7.18348179 8.27903617 8.05078125 14.53515625 C8.72488843 25.6670343 3.9192785 35.8724627 -2.984375 44.3359375 C-4.43118139 46.2887023 -4.43118139 46.2887023 -4.125 48.32421875 C-2.51493522 52.14990365 -0.54780912 55.77825312 1.3828125 59.44921875 C2.64124385 62.16986152 3.32323309 64.47216723 3.7578125 67.421875 C2.36503233 68.07426658 0.96842038 68.71848052 -0.4296875 69.359375 C-1.59564453 69.89884766 -1.59564453 69.89884766 -2.78515625 70.44921875 C-5.26657554 71.43152941 -7.61573586 71.97869044 -10.2421875 72.421875 C-10.73589844 71.42285156 -11.22960937 70.42382812 -11.73828125 69.39453125 C-12.38531145 68.0910936 -13.03245261 66.78771102 -13.6796875 65.484375 C-14.00517578 64.82501953 -14.33066406 64.16566406 -14.66601562 63.48632812 C-16.13330096 60.23897465 -16.13330096 60.23897465 -18.2421875 57.421875 C-22.3064383 57.62625926 -22.3064383 57.62625926 -26.2421875 58.421875 C-28.90912977 62.4222884 -29.78553765 66.58454153 -31.046875 71.1953125 C-32.90926633 76.22255183 -35.6451234 79.40680411 -40.2421875 82.109375 C-40.9021875 82.50511719 -41.5621875 82.90085937 -42.2421875 83.30859375 C-43.2321875 83.85966797 -43.2321875 83.85966797 -44.2421875 84.421875 C-44.9228125 84.82019531 -45.6034375 85.21851563 -46.3046875 85.62890625 C-48.2421875 86.421875 -48.2421875 86.421875 -51.2421875 85.421875 C-50.89285156 84.81859375 -50.54351562 84.2153125 -50.18359375 83.59375 C-49.72855469 82.79453125 -49.27351563 81.9953125 -48.8046875 81.171875 C-48.12599609 79.98851562 -48.12599609 79.98851562 -47.43359375 78.78125 C-45.26467751 74.48608473 -45.10085877 70.6995531 -45.03686523 65.90917969 C-45.02201584 64.94270004 -45.02201584 64.94270004 -45.00686646 63.95669556 C-44.97538321 61.83575055 -44.95054647 59.71478319 -44.92578125 57.59375 C-44.90520032 56.11972485 -44.88420355 54.64570545 -44.86280823 53.17169189 C-44.8077051 49.29855009 -44.75824416 45.42535605 -44.70996094 41.55212402 C-44.65965987 37.59720226 -44.60401879 33.64235602 -44.54882812 29.6875 C-44.44139045 21.93235568 -44.33991376 14.17714842 -44.2421875 6.421875 C-43.64126282 6.22353058 -43.04033813 6.02518616 -42.42120361 5.8208313 C-41.62381775 5.55656342 -40.82643188 5.29229553 -40.00488281 5.02001953 C-39.21833313 4.75980011 -38.43178345 4.49958069 -37.62139893 4.23147583 C-33.34479167 2.77622694 -29.14024355 1.13087403 -24.9296875 -0.50390625 C-15.96265089 -3.9273679 -8.20859565 -5.72992167 0 0 Z " fill="#C367D1" transform="translate(141.2421875,56.578125)"/>
<path d="M0 0 C3.95829688 -0.22822613 6.67851541 0.44949991 10.3125 2 C11.19550781 2.37125 12.07851563 2.7425 12.98828125 3.125 C13.65214844 3.41375 14.31601562 3.7025 15 4 C15.00586624 4.77372452 15.01173248 5.54744904 15.01777649 6.34461975 C15.07581721 13.65657724 15.14795832 20.96819838 15.23571491 28.27985477 C15.28033415 32.03835444 15.31960837 35.79674782 15.34643555 39.55541992 C15.37255354 43.18663302 15.41301461 46.81743527 15.46318626 50.44839287 C15.47979788 51.82972519 15.49134757 53.21112848 15.49761391 54.59254646 C15.54038918 63.1598916 15.81578343 69.22367514 20.625 76.4375 C23.7653027 78.50348862 26.18716473 78.48144573 29.87890625 78.53125 C32.11788287 78.16792273 32.11788287 78.16792273 33.60554504 76.35089111 C35.38515245 73.35067714 35.39700849 71.33436466 35.43237305 67.85449219 C35.45216721 66.61350769 35.47196136 65.37252319 35.49235535 64.09393311 C35.49912456 62.74491528 35.50557149 61.3958958 35.51171875 60.046875 C35.52856935 58.66252042 35.54672012 57.27818111 35.56611633 55.89385986 C35.6135817 52.25745412 35.64341308 48.62111028 35.66955566 44.98449707 C35.69937893 41.27079037 35.74590312 37.55729687 35.79101562 33.84375 C35.87700916 26.56260586 35.94437161 19.28144616 36 12 C39.77259033 12.56315479 43.27350258 13.30743272 46.875 14.5625 C47.65617187 14.83191406 48.43734375 15.10132813 49.2421875 15.37890625 C49.82226562 15.58386719 50.40234375 15.78882813 51 16 C51.11633316 24.69327866 51.2049359 33.3862855 51.25906086 42.0801754 C51.2850507 46.11802221 51.32025105 50.1553328 51.37719727 54.19287109 C51.43190084 58.09625064 51.46150017 61.99911754 51.47438622 65.9028511 C51.48355799 67.38510829 51.50146717 68.86734039 51.52865028 70.34937668 C51.68169358 79.04672677 51.46656879 86.79104441 46 94 C41.10305717 98.02539863 35.88547202 98.64922191 29.6640625 98.375 C21.57951256 97.23699884 15.4099545 91.83654589 10 86 C3.24071211 76.82484496 -0.13619161 68.91295554 -0.11352539 57.44384766 C-0.11344986 56.16297272 -0.11337433 54.88209778 -0.11329651 53.56240845 C-0.10819105 52.17962606 -0.10297508 50.79684408 -0.09765625 49.4140625 C-0.09578917 47.98774261 -0.09436664 46.56142208 -0.09336853 45.13510132 C-0.08956615 41.39673058 -0.07975552 37.65839922 -0.06866455 33.92004395 C-0.05840124 30.09904513 -0.0538604 26.2780399 -0.04882812 22.45703125 C-0.03813103 14.97133629 -0.02108223 7.48567368 0 0 Z " fill="#8E6BE6" transform="translate(42,47)"/>
<path d="M0 0 C2.37890625 2.015625 2.37890625 2.015625 3.37890625 5.015625 C4.03890625 5.345625 4.69890625 5.675625 5.37890625 6.015625 C6.03890625 6.345625 6.69890625 6.675625 7.37890625 7.015625 C7.70890625 8.005625 8.03890625 8.995625 8.37890625 10.015625 C9.26449219 10.41007812 9.26449219 10.41007812 10.16796875 10.8125 C13.36132064 12.55022506 14.87965653 15.25781542 16.75390625 18.265625 C17.14529785 18.89041748 17.53668945 19.51520996 17.93994141 20.15893555 C30.26492448 40.33698278 33.40543055 62.87067454 27.97412109 85.85888672 C25.10751232 96.24593427 19.99812361 105.56137708 13.37890625 114.015625 C12.858125 114.76328125 12.33734375 115.5109375 11.80078125 116.28125 C11.3315625 116.85359375 10.86234375 117.4259375 10.37890625 118.015625 C9.71890625 118.015625 9.05890625 118.015625 8.37890625 118.015625 C8.11078125 118.655 7.84265625 119.294375 7.56640625 119.953125 C6.37890625 122.015625 6.37890625 122.015625 3.37890625 123.015625 C3.37890625 123.675625 3.37890625 124.335625 3.37890625 125.015625 C2.71890625 125.015625 2.05890625 125.015625 1.37890625 125.015625 C1.37890625 125.675625 1.37890625 126.335625 1.37890625 127.015625 C-16.86241138 140.87680861 -37.9808468 147.18448663 -60.8046875 144.6640625 C-63.77569051 144.21746587 -66.68759031 143.66247899 -69.62109375 143.015625 C-70.41515625 142.84417969 -71.20921875 142.67273438 -72.02734375 142.49609375 C-83.27460493 139.59055128 -96.46404383 133.39925964 -104.62109375 125.015625 C-104.62109375 124.355625 -104.62109375 123.695625 -104.62109375 123.015625 C-105.26046875 122.7475 -105.89984375 122.479375 -106.55859375 122.203125 C-108.62109375 121.015625 -108.62109375 121.015625 -109.62109375 118.015625 C-110.21148437 117.75265625 -110.801875 117.4896875 -111.41015625 117.21875 C-114.60358757 115.48098172 -116.12163737 112.77336034 -117.99609375 109.765625 C-118.38748535 109.14155762 -118.77887695 108.51749023 -119.18212891 107.87451172 C-131.11984547 88.34764311 -134.75004853 66.37013738 -129.71875 44.02734375 C-126.63909265 31.98814841 -120.65245899 20.49450375 -112.62109375 11.015625 C-111.63109375 10.685625 -110.64109375 10.355625 -109.62109375 10.015625 C-109.29109375 9.355625 -108.96109375 8.695625 -108.62109375 8.015625 C-107.62109375 6.015625 -107.62109375 6.015625 -104.62109375 5.015625 C-104.358125 4.42523437 -104.09515625 3.83484375 -103.82421875 3.2265625 C-102.08645047 0.03313118 -99.37882909 -1.48491862 -96.37109375 -3.359375 C-95.74702637 -3.7507666 -95.12295898 -4.1421582 -94.47998047 -4.54541016 C-63.77846901 -23.31472484 -28.89919626 -20.28262609 0 0 Z M-83.80859375 -5.234375 C-84.48784912 -4.88584473 -85.16710449 -4.53731445 -85.86694336 -4.17822266 C-91.27910114 -1.32631492 -96.00001056 2.00359671 -100.62109375 6.015625 C-101.19601563 6.43714844 -101.7709375 6.85867187 -102.36328125 7.29296875 C-114.57739238 16.55205299 -123.17276407 33.41309812 -126.1484375 48.11328125 C-128.86369094 70.53095221 -125.88912185 92.00360674 -111.80859375 110.265625 C-110.43623081 111.86934415 -109.03965831 113.45262477 -107.62109375 115.015625 C-106.87085937 115.85867187 -106.120625 116.70171875 -105.34765625 117.5703125 C-92.98384711 130.73436819 -75.47716164 139.58670014 -57.2734375 140.3515625 C-35.97667353 140.69031155 -16.91493145 136.69735155 -0.62109375 122.015625 C0.27351563 121.21382812 1.168125 120.41203125 2.08984375 119.5859375 C16.05922739 106.38199954 24.91117388 88.90360022 25.71484375 69.53515625 C26.04658653 48.63536106 21.74121163 29.95496783 7.37890625 14.015625 C6.57710937 13.12101562 5.7753125 12.22640625 4.94921875 11.3046875 C-5.16305524 0.60619473 -16.50310889 -5.78317535 -30.62109375 -9.984375 C-31.82636719 -10.35175781 -33.03164062 -10.71914062 -34.2734375 -11.09765625 C-39.75123448 -12.42592522 -45.26404145 -12.31374339 -50.87109375 -12.296875 C-51.92683594 -12.31298828 -52.98257813 -12.32910156 -54.0703125 -12.34570312 C-64.73124269 -12.35222756 -74.36030492 -10.19463559 -83.80859375 -5.234375 Z " fill="#09050C" transform="translate(140.62109375,25.984375)"/>
<path d="M0 0 C0 1.65 0 3.3 0 5 C-1.65 5 -3.3 5 -5 5 C-4.93844528 12.89406254 -4.86109753 20.78775345 -4.76428509 28.68145466 C-4.71979903 32.34791626 -4.68049704 36.01427231 -4.65356445 39.6809082 C-4.62731158 43.22785027 -4.58675981 46.77438121 -4.53681374 50.3210659 C-4.51232144 52.3142344 -4.50215756 54.30756268 -4.49235535 56.30085754 C-4.2544435 71.21026214 -0.44562415 83.97568155 9.875 95.01953125 C16.44269123 101.14052289 22.36949719 103.28144446 31.265625 103.234375 C34.69295403 102.94060394 37.08962709 101.79099871 40 100 C40.66 100 41.32 100 42 100 C42.433125 98.9171875 42.433125 98.9171875 42.875 97.8125 C43.55612872 96.10967821 44.27362374 94.41999152 45.05612183 92.76130676 C46.21299058 89.37689804 46.23993978 86.58328954 46.22705078 83.0065918 C46.22734283 82.32311172 46.22763489 81.63963165 46.22793579 80.93544006 C46.22654917 78.68990109 46.21101987 76.44469933 46.1953125 74.19921875 C46.19157999 72.63694948 46.18873414 71.07467785 46.18673706 69.5124054 C46.17911935 65.41064941 46.15948696 61.3090362 46.1373291 57.20733643 C46.11683047 53.01780122 46.10772677 48.82824283 46.09765625 44.63867188 C46.07623922 36.4257159 46.04212588 28.21287574 46 20 C47.0301976 19.65741653 48.0603952 19.31483307 49.12181091 18.96186829 C50.48673051 18.50755484 51.85164414 18.05322345 53.21655273 17.59887695 C53.89398277 17.37365608 54.57141281 17.14843521 55.26937103 16.91638947 C58.69995989 15.77403383 62.12498994 14.61994351 65.53515625 13.41796875 C66.69917969 13.01191406 67.86320312 12.60585938 69.0625 12.1875 C70.84333984 11.55908203 70.84333984 11.55908203 72.66015625 10.91796875 C75.94765524 10.01438716 78.61141579 9.81948182 82 10 C81.11762697 7.66110011 81.11762697 7.66110011 78.0625 6.9375 C73.44930271 5.71692488 68.74507865 5.36280279 64 5 C64.33 4.34 64.66 3.68 65 3 C78.25641835 2.0378406 88.61334036 5.73487084 99 14 C104.09062158 19.09062158 106.137585 25.08261706 106.4375 32.1875 C106.12456457 42.0109514 102.73100625 50.7065629 97.26953125 58.78125 C95.74712341 61.44195047 95.04882166 62.90648235 95 66 C96.22934564 68.85464033 97.84800771 71.43520615 99.5 74.0625 C100.37583886 75.46307613 101.24093639 76.87044209 102.09375 78.28515625 C102.48240234 78.90269775 102.87105469 79.52023926 103.27148438 80.15649414 C104 82 104 82 103.82421875 84.13720703 C103 86 103 86 99.71875 87.51953125 C98.31987051 87.97387391 96.91285272 88.40367453 95.5 88.8125 C94.40341064 89.13831055 94.40341064 89.13831055 93.28466797 89.47070312 C87.8717472 90.97569464 83.47677527 91.55463194 78 90 C77.08863281 89.75121094 76.17726563 89.50242187 75.23828125 89.24609375 C72.80710808 88.54420693 70.40134241 87.79710531 68 87 C67.62488281 87.60328125 67.24976562 88.2065625 66.86328125 88.828125 C59.66701314 100.06662936 50.34409473 104.20962185 37.67578125 107.2265625 C26.56873161 109.56364627 19.64893633 106.9483605 10.15234375 100.8046875 C1.80032351 94.43488006 -2.42611643 85.58389751 -6 76 C-6.34682831 75.2615535 -6.69365662 74.52310699 -7.05099487 73.76228333 C-8.21418954 70.37655531 -8.23995142 67.58651843 -8.22705078 64.0065918 C-8.22734283 63.32311172 -8.22763489 62.63963165 -8.22793579 61.93544006 C-8.22654917 59.68990109 -8.21101987 57.44469933 -8.1953125 55.19921875 C-8.19157999 53.63694948 -8.18873414 52.07467785 -8.18673706 50.5124054 C-8.17911935 46.41064941 -8.15948696 42.3090362 -8.1373291 38.20733643 C-8.11683047 34.01780122 -8.10772677 29.82824283 -8.09765625 25.63867188 C-8.07623922 17.4257159 -8.04212588 9.21287574 -8 1 C-5.10765685 0.17361624 -3.11257569 0 0 0 Z M72.5 14.3125 C71.79230469 14.52583984 71.08460937 14.73917969 70.35546875 14.95898438 C63.77176889 16.97501678 57.38852398 19.44145139 51 22 C50.99635437 22.80464691 50.99270874 23.60929382 50.98895264 24.43832397 C50.95092899 32.05843749 50.89391521 39.67806983 50.81609726 47.29787254 C50.77675512 51.21438535 50.74450232 55.13067779 50.72900391 59.04736328 C50.71374894 62.83427321 50.67914992 66.62057676 50.63169098 70.40721512 C50.61696748 71.844679 50.60896422 73.28222949 50.60811615 74.71976852 C50.59807649 83.21221354 49.94440852 90.34266018 46 98 C45.6269574 98.74841156 45.25391479 99.49682312 44.86956787 100.26791382 C44.58261047 100.83950226 44.29565308 101.4110907 44 102 C52.6459254 100.07440414 59.1214225 95.42057315 64 88 C65.08435725 84.66034459 65.95784744 81.29660511 66.83984375 77.8984375 C68 75 68 75 69.81640625 73.6015625 C72.46566087 72.87171418 74.27090603 72.53426945 77 73 C78.73046875 75.01171875 78.73046875 75.01171875 80.1875 77.6875 C80.92033203 78.99267578 80.92033203 78.99267578 81.66796875 80.32421875 C82.92223466 82.84378517 84.00026475 85.37036462 85 88 C90.06998019 87.34580901 94.41990777 85.1453591 99 83 C98.25195319 77.28278506 95.26548341 72.95976907 92.3984375 68.05859375 C91 65 91 65 91.08203125 62.91015625 C92.27465813 60.42847735 93.74098284 58.26136944 95.3125 56 C101.33285372 46.69694312 104.77824411 36.89122053 102.5625 25.8125 C100.90600914 20.34608017 97.67210838 17.1549291 93 14 C92.43152344 13.61585937 91.86304688 13.23171875 91.27734375 12.8359375 C84.93416402 10.50756621 78.66564364 12.35274624 72.5 14.3125 Z " fill="#241631" transform="translate(46,41)"/>
<path d="M0 0 C0 2.64 0 5.28 0 8 C-0.556875 8.18175781 -1.11375 8.36351562 -1.6875 8.55078125 C-5.62088784 9.84640731 -9.51672523 11.18148197 -13.375 12.6875 C-17 14 -17 14 -20 14 C-19.99333817 14.81797058 -19.98667633 15.63594116 -19.97981262 16.47869873 C-19.91969224 24.1886945 -19.874021 31.89857655 -19.84456348 39.60874557 C-19.82890992 43.5725988 -19.80767757 47.53625828 -19.77368164 51.5 C-19.74107673 55.32551222 -19.72314466 59.15083812 -19.71536827 62.97647858 C-19.70982675 64.43573184 -19.69900544 65.89497495 -19.68280983 67.35414886 C-19.66101967 69.398758 -19.65803361 71.44259805 -19.65942383 73.48730469 C-19.65276199 74.65090515 -19.64610016 75.81450562 -19.63923645 77.0133667 C-20.03243908 80.26855159 -20.79759518 81.62744168 -23 84 C-26.92888829 83.73212125 -28.54876221 83.47562903 -31.3125 80.5625 C-33.92095505 76.6015127 -34.12269978 74.55848371 -34.11352539 69.80615234 C-34.11344986 68.50495453 -34.11337433 67.20375671 -34.11329651 65.86312866 C-34.10818947 64.43739789 -34.10297347 63.0116675 -34.09765625 61.5859375 C-34.09579147 60.13148039 -34.09436785 58.67702266 -34.09336853 57.2225647 C-34.08954805 53.39207224 -34.07972176 49.56161763 -34.06866455 45.73114014 C-34.05844035 41.82336947 -34.05386874 37.91559269 -34.04882812 34.0078125 C-34.03809908 26.3385244 -34.02102828 18.6692675 -34 11 C-32.58309299 10.36097701 -31.16516726 9.72421254 -29.74682617 9.08837891 C-28.95733078 8.73353424 -28.16783539 8.37868958 -27.35441589 8.01309204 C-24.05689639 6.59418777 -20.72874111 5.48161938 -17.3125 4.375 C-16.07113281 3.97023437 -14.82976562 3.56546875 -13.55078125 3.1484375 C-12.37902344 2.76945312 -11.20726562 2.39046875 -10 2 C-8.94167969 1.62101562 -7.88335937 1.24203125 -6.79296875 0.8515625 C-4 0 -4 0 0 0 Z " fill="#8D69E0" transform="translate(95,40)"/>
<path d="M0 0 C13.25641835 -0.9621594 23.61334036 2.73487084 34 11 C39.09062158 16.09062158 41.137585 22.08261706 41.4375 29.1875 C41.12456457 39.0109514 37.73100625 47.7065629 32.26953125 55.78125 C30.7472545 58.44172136 30.05317503 59.90698575 30 63 C31.20329258 65.87755457 32.79956874 68.47632765 34.4375 71.125 C35.29596373 72.54089114 36.14908001 73.96004217 36.99609375 75.3828125 C37.37950928 76.00559082 37.7629248 76.62836914 38.15795898 77.27001953 C39 79 39 79 39 82 C37.35 82 35.7 82 34 82 C33.84337891 80.69095703 33.84337891 80.69095703 33.68359375 79.35546875 C32.96692362 75.83764224 31.83441065 73.41875901 30.0625 70.3125 C29.53785156 69.38050781 29.01320312 68.44851562 28.47265625 67.48828125 C27.37003471 65.62523106 26.20086255 63.80129382 25 62 C25.32471644 58.37525838 27.27631835 55.93000871 29.3125 53 C35.3080769 43.73522994 38.8754622 33.81932224 36.52734375 22.77734375 C34.90154554 17.56894827 32.44715548 15.08578135 28 12 C27.071875 11.3503125 27.071875 11.3503125 26.125 10.6875 C19.80965541 8.64430028 13.58733543 10.37763655 7.5 12.3125 C6.79230469 12.52583984 6.08460937 12.73917969 5.35546875 12.95898438 C1.76147818 14.05952079 -1.76855892 15.26788152 -5.28125 16.60546875 C-7.90297572 17.5886159 -10.2988552 18.36911107 -13 19 C-13.01030746 19.8224118 -13.02061493 20.64482361 -13.03123474 21.49215698 C-13.12910168 29.23229914 -13.23160056 36.97235937 -13.33933926 44.71236992 C-13.39456799 48.6918445 -13.4479879 52.67132644 -13.49731445 56.65087891 C-13.54495877 60.48939641 -13.59730158 64.32782341 -13.65294075 68.16623306 C-13.67336401 69.63266886 -13.69207715 71.09912947 -13.70907402 72.56560898 C-13.73311876 74.61528265 -13.763173 76.66478482 -13.79467773 78.71435547 C-13.81799416 80.466418 -13.81799416 80.466418 -13.84178162 82.25387573 C-14 85 -14 85 -15 87 C-15.66 87 -16.32 87 -17 87 C-17.01030746 86.16728073 -17.02061493 85.33456146 -17.03123474 84.47660828 C-17.129162 76.63376791 -17.2316697 68.79100373 -17.33933926 60.94829082 C-17.39453281 56.91615716 -17.44794712 52.88401619 -17.49731445 48.85180664 C-17.54501062 44.96141552 -17.59735535 41.07111231 -17.65294075 37.18082619 C-17.6733405 35.69567869 -17.69205751 34.21050711 -17.70907402 32.725317 C-17.73317079 30.64711162 -17.76321796 28.56907192 -17.79467773 26.4909668 C-17.81022202 25.30738083 -17.8257663 24.12379486 -17.84178162 22.90434265 C-17.87536986 19.93363184 -17.87536986 19.93363184 -19 17 C-18.09121094 16.69707031 -17.18242188 16.39414062 -16.24609375 16.08203125 C-15.64595459 15.88182373 -15.04581543 15.68161621 -14.42749023 15.4753418 C-13.08754708 15.02902286 -11.74720643 14.58389575 -10.40649414 14.13989258 C-6.88588204 12.97210181 -3.37383593 11.78631797 0.125 10.5546875 C1.11584595 10.21087036 1.11584595 10.21087036 2.12670898 9.86010742 C3.97321511 9.21852281 5.81676839 8.56845849 7.66015625 7.91796875 C10.94765524 7.01438716 13.61141579 6.81948182 17 7 C16.11762697 4.66110011 16.11762697 4.66110011 13.0625 3.9375 C8.44930271 2.71692488 3.74507865 2.36280279 -1 2 C-0.67 1.34 -0.34 0.68 0 0 Z " fill="#150A18" transform="translate(111,44)"/>
<path d="M0 0 C1.32 0 2.64 0 4 0 C4.00142502 0.79656006 4.00285004 1.59312012 4.00431824 2.41381836 C4.02219941 9.94632068 4.06396301 17.47814341 4.13209057 25.01034546 C4.16628041 28.88213745 4.19145793 32.75353823 4.19555664 36.62548828 C4.19985703 40.36709503 4.22846122 44.10782051 4.27343178 47.84915161 C4.28635172 49.27152357 4.29073404 50.6940013 4.28615379 52.11642456 C4.26796318 59.48558795 4.26640389 65.51300273 8.60762024 71.6796875 C10.84175982 73.79819173 13.01245235 74 16 74 C18.37580897 70.43628654 18.27046969 68.83390187 18.31884766 64.60083008 C18.32889328 63.95665634 18.3389389 63.3124826 18.34928894 62.64878845 C18.38014705 60.52237835 18.39716293 58.3960943 18.4140625 56.26953125 C18.43277209 54.79407159 18.45234534 53.31862265 18.4727478 51.84318542 C18.52409736 47.96182575 18.56370781 44.08043137 18.60089111 40.19891357 C18.64091316 36.23733923 18.69201368 32.2759096 18.7421875 28.31445312 C18.83898018 20.54306799 18.9233741 12.77161291 19 5 C20.65 5 22.3 5 24 5 C24.33 6.32 24.66 7.64 25 9 C24.01 9 23.02 9 22 9 C22.00888245 9.77816574 22.01776489 10.55633148 22.0269165 11.358078 C22.10714155 18.69984135 22.16800415 26.04139148 22.20724869 33.38347912 C22.22810327 37.15794293 22.2563809 40.93204385 22.30175781 44.70629883 C22.3452932 48.3502845 22.36915313 51.99392164 22.37950897 55.63814735 C22.38688669 57.02682289 22.40129401 58.41547985 22.42292023 59.80400658 C22.45205017 61.75220431 22.45363471 63.70075447 22.45410156 65.64916992 C22.46298401 66.7572551 22.47186646 67.86534027 22.48101807 69.00700378 C21.88824112 72.69538739 20.58667775 74.35495371 18 77 C14.85878971 78.14384183 12.18747188 77.94820592 9 77 C4.89045056 73.7596317 1.98391005 70.17879676 1 65 C0.88526312 62.86168257 0.82372497 60.72029802 0.79467773 58.57910156 C0.77473251 57.27805481 0.75478729 55.97700806 0.73423767 54.63653564 C0.71725582 53.2212333 0.70037693 51.80592972 0.68359375 50.390625 C0.66301245 48.93902001 0.64201567 47.48742086 0.62062073 46.03582764 C0.56552149 42.22187028 0.51605885 38.40785993 0.46777344 34.59381104 C0.41746951 30.69921166 0.36182993 26.80468891 0.30664062 22.91015625 C0.19920772 15.27350245 0.09772999 7.63678479 0 0 Z " fill="#0E0A19" transform="translate(56,49)"/>
<path d="M0 0 C2.5625 1.5 2.5625 1.5 4 4 C4.45666843 8.79501848 4.51662262 12.76749832 2 17 C-2.59255965 21.70737364 -7.77351516 23.99543024 -14 26 C-14.66 26 -15.32 26 -16 26 C-16 18.41 -16 10.82 -16 3 C-9.81658069 0.34996315 -6.4078455 -1.07622116 0 0 Z " fill="#BE63C8" transform="translate(129,72)"/>
<path d="M0 0 C0 1.65 0 3.3 0 5 C-1.65 5 -3.3 5 -5 5 C-4.93844528 12.89406254 -4.86109753 20.78775345 -4.76428509 28.68145466 C-4.71979903 32.34791626 -4.68049704 36.01427231 -4.65356445 39.6809082 C-4.62731158 43.22785027 -4.58675981 46.77438121 -4.53681374 50.3210659 C-4.51232144 52.3142344 -4.50215756 54.30756268 -4.49235535 56.30085754 C-4.25430762 71.21877722 -0.43902113 83.9671194 9.875 95.0234375 C12.97159626 97.9037274 16.31529742 99.96565201 20 102 C21.485 102.99 21.485 102.99 23 104 C22.67 104.66 22.34 105.32 22 106 C17.44904985 105.4645941 14.67217486 103.6776275 11 101 C10.195625 100.443125 9.39125 99.88625 8.5625 99.3125 C1.22136076 92.68756947 -2.5821037 85.16559458 -6 76 C-6.34682831 75.2615535 -6.69365662 74.52310699 -7.05099487 73.76228333 C-8.21418954 70.37655531 -8.23995142 67.58651843 -8.22705078 64.0065918 C-8.22734283 63.32311172 -8.22763489 62.63963165 -8.22793579 61.93544006 C-8.22654917 59.68990109 -8.21101987 57.44469933 -8.1953125 55.19921875 C-8.19157999 53.63694948 -8.18873414 52.07467785 -8.18673706 50.5124054 C-8.17911935 46.41064941 -8.15948696 42.3090362 -8.1373291 38.20733643 C-8.11683047 34.01780122 -8.10772677 29.82824283 -8.09765625 25.63867188 C-8.07623922 17.4257159 -8.04212588 9.21287574 -8 1 C-5.10765685 0.17361624 -3.11257569 0 0 0 Z " fill="#0D0C1E" transform="translate(46,41)"/>
<path d="M0 0 C0.73283203 0.47566406 0.73283203 0.47566406 1.48046875 0.9609375 C1.48046875 1.6209375 1.48046875 2.2809375 1.48046875 2.9609375 C0.48789063 3.19167969 -0.5046875 3.42242187 -1.52734375 3.66015625 C-9.72282818 5.61334739 -17.49690162 7.88349088 -25.3359375 11.0078125 C-30.66240486 12.60248494 -35.26876503 12.37660503 -40.45703125 10.4609375 C-41.22917969 10.1825 -42.00132813 9.9040625 -42.796875 9.6171875 C-43.64958984 9.29234375 -43.64958984 9.29234375 -44.51953125 8.9609375 C-44.51953125 8.3009375 -44.51953125 7.6409375 -44.51953125 6.9609375 C-13.57153561 -5.59694337 -13.57153561 -5.59694337 0 0 Z " fill="#AC65CF" transform="translate(126.51953125,48.0390625)"/>
<path d="M0 0 C-1 2 -1 2 -4.4296875 3.1484375 C-5.90944096 3.56453393 -7.39137592 3.97292276 -8.875 4.375 C-14.04226284 5.8123876 -19.02999953 7.33602545 -24 9.375 C-30.44901663 11.79215798 -35.33098597 11.17062019 -41.5625 8.4375 C-42.366875 7.963125 -43.17125 7.48875 -44 7 C-39.31607428 3.15079936 -33.99062132 1.66435758 -28.3125 -0.25 C-27.26126953 -0.62640625 -26.21003906 -1.0028125 -25.12695312 -1.390625 C-15.60834882 -4.61285321 -8.98051267 -4.39471897 0 0 Z " fill="#8B68DF" transform="translate(90,37)"/>
<path d="M0 0 C2.05412721 2.46130627 3.51746427 5.16738878 5 8 C5.598125 9.11375 6.19625 10.2275 6.8125 11.375 C8 14 8 14 8 16 C10.12744999 15.21494099 12.25189674 14.4217394 14.375 13.625 C15.55835938 13.18414062 16.74171875 12.74328125 17.9609375 12.2890625 C21.04493446 11.2049658 21.04493446 11.2049658 23 9 C23 9.99 23 10.98 23 12 C23.99 12.66 24.98 13.32 26 14 C7.43794772 20.58212651 7.43794772 20.58212651 -1.171875 17.12890625 C-3 16 -3 16 -4 13 C-7.97754128 12.26665571 -7.97754128 12.26665571 -12 12 C-10.84123591 3.75029149 -10.84123591 3.75029149 -7.6875 0.9375 C-2.79589935 -0.76887232 -2.79589935 -0.76887232 0 0 Z " fill="#1F0F21" transform="translate(123,113)"/>
<path d="M0 0 C0.96486328 0.45052734 0.96486328 0.45052734 1.94921875 0.91015625 C9.6622295 4.15600243 15.78115939 4.20211977 24 3 C24 3.66 24 4.32 24 5 C20.535 6.485 20.535 6.485 17 8 C16.67 28.79 16.34 49.58 16 71 C15.67 71 15.34 71 15 71 C15 49.55 15 28.1 15 6 C13.35 6.66 11.7 7.32 10 8 C5.71 6.68 1.42 5.36 -3 4 C-3 24.13 -3 44.26 -3 65 C-3.33 65 -3.66 65 -4 65 C-4 44.54 -4 24.08 -4 3 C-2.68 2.67 -1.36 2.34 0 2 C0 1.34 0 0.68 0 0 Z " fill="#342D63" transform="translate(45,43)"/>
<path d="M0 0 C2.5625 1.5 2.5625 1.5 4 4 C4.45666843 8.79501848 4.51662262 12.76749832 2 17 C-2.59255965 21.70737364 -7.77351516 23.99543024 -14 26 C-14.66 26 -15.32 26 -16 26 C-16 18.41 -16 10.82 -16 3 C-9.81658069 0.34996315 -6.4078455 -1.07622116 0 0 Z M-14 6 C-14 11.28 -14 16.56 -14 22 C-7.85541491 20.77108298 -3.57137549 19.33171847 -0.0625 14.125 C1.06117613 10.82007021 1.39344712 8.46233468 1 5 C-0.85060932 2.73558871 -0.85060932 2.73558871 -3.6875 2.6875 C-7.75398683 2.90077363 -7.75398683 2.90077363 -14 6 Z " fill="#120814" transform="translate(129,72)"/>
<path d="M0 0 C0.33 0 0.66 0 1 0 C1 2.97 1 5.94 1 9 C1.66644531 8.7834375 2.33289063 8.566875 3.01953125 8.34375 C9.84688794 6.28121987 15.88654513 5.62850429 23 6 C23 6.33 23 6.66 23 7 C18.545 7.495 18.545 7.495 14 8 C16.97 8.33 19.94 8.66 23 9 C23 9.33 23 9.66 23 10 C22.16082031 9.99097656 21.32164063 9.98195313 20.45703125 9.97265625 C9.15351472 10.25130671 -0.5322105 13.46155144 -11.08325195 17.37329102 C-13 18 -13 18 -15 18 C-15 18.66 -15 19.32 -15 20 C-8.01466204 21.56901859 -8.01466204 21.56901859 -1 23 C-2.32 23.33 -3.64 23.66 -5 24 C-5 24.66 -5 25.32 -5 26 C-6.58468677 25.54636829 -8.16769924 25.08688548 -9.75 24.625 C-11.07257813 24.24214844 -11.07257813 24.24214844 -12.421875 23.8515625 C-14.76080572 23.0790066 -16.83442562 22.16374324 -19 21 C-18.34 20.67 -17.68 20.34 -17 20 C-17 19.01 -17 18.02 -17 17 C-17.66 16.67 -18.32 16.34 -19 16 C-13.01589463 13.67344909 -7.41991126 11.57065878 -1 11 C-0.67 7.37 -0.34 3.74 0 0 Z " fill="#190E21" transform="translate(97,37)"/>
<path d="M0 0 C0.33 0 0.66 0 1 0 C1.875 2.4375 1.875 2.4375 2 6 C0.58258339 8.41894452 -1.00107166 10.56384197 -2.75 12.75390625 C-4.19744103 14.90690182 -4.19744103 14.90690182 -3.94140625 17.30078125 C-2.65939623 20.97658591 -0.84990905 24.24277744 1.0625 27.625 C5 34.59807692 5 34.59807692 5 38 C3.35 38 1.7 38 0 38 C-0.10441406 37.12730469 -0.20882812 36.25460938 -0.31640625 35.35546875 C-1.03307638 31.83764224 -2.16558935 29.41875901 -3.9375 26.3125 C-4.46214844 25.38050781 -4.98679688 24.44851562 -5.52734375 23.48828125 C-6.62996529 21.62523106 -7.79913745 19.80129382 -9 18 C-8.68138711 14.24833319 -6.53995281 11.50996991 -4.5 8.4375 C-2.60283655 5.57231667 -1.08804062 3.26412185 0 0 Z " fill="#160814" transform="translate(145,88)"/>
<path d="M0 0 C0.66 0.33 1.32 0.66 2 1 C2 1.99 2 2.98 2 4 C-2.28993333 5.50499009 -6.58222158 7.00314637 -10.875 8.5 C-12.09832031 8.92925781 -13.32164063 9.35851563 -14.58203125 9.80078125 C-15.74863281 10.20683594 -16.91523437 10.61289062 -18.1171875 11.03125 C-19.19597168 11.40830078 -20.27475586 11.78535156 -21.38623047 12.17382812 C-24 13 -24 13 -26 13 C-26 12.34 -26 11.68 -26 11 C-26.66 10.67 -27.32 10.34 -28 10 C-27.15405273 9.7054895 -27.15405273 9.7054895 -26.29101562 9.4050293 C-23.69367013 8.50015965 -21.09683327 7.59383858 -18.5 6.6875 C-17.613125 6.37876953 -16.72625 6.07003906 -15.8125 5.75195312 C-14.9359375 5.44580078 -14.059375 5.13964844 -13.15625 4.82421875 C-12.28871094 4.52177246 -11.42117187 4.21932617 -10.52734375 3.90771484 C-8.15294647 3.05493189 -5.81323765 2.13814897 -3.46875 1.20703125 C-2.3240625 0.80871094 -1.179375 0.41039063 0 0 Z " fill="#171026" transform="translate(72,30)"/>
<path d="M0 0 C0.66 0.66 1.32 1.32 2 2 C1.67 2.66 1.34 3.32 1 4 C-1.97 3.505 -1.97 3.505 -5 3 C-5.37511719 3.60328125 -5.75023438 4.2065625 -6.13671875 4.828125 C-12.73236515 15.12863071 -12.73236515 15.12863071 -18.8125 16.75 C-19.534375 16.8325 -20.25625 16.915 -21 17 C-19.86280581 13.58841744 -18.95657056 12.88145399 -16 11 C-15.34 11 -14.68 11 -14 11 C-13.7525 10.484375 -13.505 9.96875 -13.25 9.4375 C-7.52581262 -1.72466539 -7.52581262 -1.72466539 0 0 Z " fill="#140A17" transform="translate(119,125)"/>
<path d="M0 0 C2.75 0.5625 2.75 0.5625 4.19140625 2.2421875 C7.75 7.77777778 7.75 7.77777778 7.75 11.5625 C0.125 9.8125 0.125 9.8125 -3.25 7.5625 C-3.5 4.5 -3.5 4.5 -3.25 1.5625 C-2.25 0.5625 -2.25 0.5625 0 0 Z " fill="#BA62C5" transform="translate(119.25,116.4375)"/>
<path d="M0 0 C7.95467422 -0.61189802 7.95467422 -0.61189802 11.5625 1.5 C13.56249889 4.97825894 13.53657947 8.12896241 13 12 C12 15 12 15 11 17 C10.01 17 9.02 17 8 17 C7.67 16.34 7.34 15.68 7 15 C7.309375 14.4225 7.61875 13.845 7.9375 13.25 C9.28624463 10.39383489 9.14182953 8.12024959 9 5 C8.2575 4.731875 7.515 4.46375 6.75 4.1875 C4.13363446 3.05770579 2.19812889 1.79106798 0 0 Z " fill="#261126" transform="translate(120,72)"/>
<path d="M0 0 C0.66 0.66 1.32 1.32 2 2 C-0.74970636 2.81350483 -3.49974893 3.62584054 -6.25 4.4375 C-7.02730469 4.66759766 -7.80460937 4.89769531 -8.60546875 5.13476562 C-9.35957031 5.35712891 -10.11367187 5.57949219 -10.890625 5.80859375 C-11.92751465 6.11494751 -11.92751465 6.11494751 -12.98535156 6.42749023 C-14.98114721 6.99464254 -16.98449654 7.50798004 -19 8 C-19 7.34 -19 6.68 -19 6 C-19.66 5.67 -20.32 5.34 -21 5 C-18.25435036 3.96588523 -15.5045139 2.94748843 -12.75 1.9375 C-11.97269531 1.64294922 -11.19539063 1.34839844 -10.39453125 1.04492188 C-9.26337891 0.6340332 -9.26337891 0.6340332 -8.109375 0.21484375 C-7.41811523 -0.04176025 -6.72685547 -0.29836426 -6.01464844 -0.56274414 C-3.6254871 -1.08128364 -2.27768414 -0.85457804 0 0 Z " fill="#180F26" transform="translate(88,40)"/>
<path d="M0 0 C0.33 0 0.66 0 1 0 C1.875 2.4375 1.875 2.4375 2 6 C0.3792296 9.29592907 -1.56640094 12.24771535 -4 15 C-4.99 15.33 -5.98 15.66 -7 16 C-7.66 16.66 -8.32 17.32 -9 18 C-8.35635703 14.21859757 -6.60423131 11.60678281 -4.5 8.4375 C-2.60283655 5.57231667 -1.08804062 3.26412185 0 0 Z " fill="#250F22" transform="translate(145,88)"/>
<path d="M0 0 C1.66611905 -0.042721 3.33382885 -0.04063832 5 0 C6.66561399 1.66561399 6.17115945 3.65962705 6.1875 5.9375 C6.20167969 6.83339844 6.21585938 7.72929688 6.23046875 8.65234375 C6 11 6 11 4 13 C4 10.36 4 7.72 4 5 C-0.455 5.495 -0.455 5.495 -5 6 C-4.34 5.34 -3.68 4.68 -3 4 C-2.01 4 -1.02 4 0 4 C0 2.68 0 1.36 0 0 Z " fill="#0B0610" transform="translate(91,35)"/>
<path d="M0 0 C2.04136395 -0.05451714 4.08315856 -0.09302485 6.125 -0.125 C7.83042969 -0.15980469 7.83042969 -0.15980469 9.5703125 -0.1953125 C13.05757767 0.00327891 15.7553862 0.7475199 19 2 C18.67 2.99 18.34 3.98 18 5 C16.72125 4.690625 15.4425 4.38125 14.125 4.0625 C9.11241278 2.93885167 4.11489044 2.40577419 -1 2 C-0.67 1.34 -0.34 0.68 0 0 Z " fill="#0C040C" transform="translate(111,44)"/>
<path d="M0 0 C-0.99 0.33 -1.98 0.66 -3 1 C-3.33 1.99 -3.66 2.98 -4 4 C-6.02706249 5.62165 -7.45600501 6.02704373 -10.04296875 5.8984375 C-12.03586561 5.65152992 -14.01918905 5.33013516 -16 5 C-13.13879225 3.09252817 -10.64745007 1.99646294 -7.4375 0.8125 C-6.46683594 0.44769531 -5.49617188 0.08289062 -4.49609375 -0.29296875 C-2 -1 -2 -1 0 0 Z " fill="#221128" transform="translate(114,55)"/>
<path d="M0 0 C0.66 0.33 1.32 0.66 2 1 C-2.66666667 5.66666667 -7.33333333 10.33333333 -12 15 C-12.66 14.67 -13.32 14.34 -14 14 C-9.61932717 8.89662734 -5.32423478 4.12628195 0 0 Z " fill="#6060D1" transform="translate(43,29)"/>
<path d="M0 0 C0.98484375 0.01804688 1.9696875 0.03609375 2.984375 0.0546875 C4.10585937 0.08949219 4.10585937 0.08949219 5.25 0.125 C5.25 0.455 5.25 0.785 5.25 1.125 C0.795 1.62 0.795 1.62 -3.75 2.125 C-0.78 2.455 2.19 2.785 5.25 3.125 C5.25 3.455 5.25 3.785 5.25 4.125 C-0.03 4.125 -5.31 4.125 -10.75 4.125 C-8.55352929 -0.26794142 -4.45698365 -0.10611866 0 0 Z " fill="#331A37" transform="translate(114.75,42.875)"/>
<path d="M0 0 C0.33 0.99 0.66 1.98 1 3 C-2.28804981 5.91227269 -4.59885603 7.49701212 -9 8 C-7.82255415 4.46766245 -7.04394359 4.13691925 -3.9375 2.3125 C-3.20402344 1.87550781 -2.47054687 1.43851563 -1.71484375 0.98828125 C-1.14894531 0.66214844 -0.58304688 0.33601562 0 0 Z " fill="#120916" transform="translate(107,134)"/>
<path d="M0 0 C0.33 0.66 0.66 1.32 1 2 C1.66 2 2.32 2 3 2 C1.8141763 5.37503669 0.72426311 7.64722731 -2 10 C-2.99 9.34 -3.98 8.68 -5 8 C-4.360625 7.236875 -3.72125 6.47375 -3.0625 5.6875 C-0.85767219 3.11753287 -0.85767219 3.11753287 0 0 Z " fill="#1F1025" transform="translate(110,126)"/>
<path d="M0 0 C3.3 0 6.6 0 10 0 C10 0.33 10 0.66 10 1 C8.02 1.33 6.04 1.66 4 2 C6.64 2.33 9.28 2.66 12 3 C12 3.33 12 3.66 12 4 C10.37509046 4.02698189 8.75005367 4.04638757 7.125 4.0625 C5.76761719 4.07990234 5.76761719 4.07990234 4.3828125 4.09765625 C2 4 2 4 0 3 C0 2.01 0 1.02 0 0 Z " fill="#372752" transform="translate(68,145)"/>
<path d="M0 0 C-2.6855594 2.6855594 -5.37621328 3.06049974 -9 4 C-9 3.34 -9 2.68 -9 2 C-9.66 1.67 -10.32 1.34 -11 1 C-6.87831311 -0.62950412 -4.29299643 -1.26264601 0 0 Z " fill="#0E0D21" transform="translate(55,39)"/>
<path d="M0 0 C2.875 -0.125 2.875 -0.125 6 0 C6.66 0.66 7.32 1.32 8 2 C7.625 4.125 7.625 4.125 7 6 C4.33333333 4.66666667 1.66666667 3.33333333 -1 2 C-0.67 1.34 -0.34 0.68 0 0 Z " fill="#1C1126" transform="translate(84,33)"/>
<path d="M0 0 C0 0.66 0 1.32 0 2 C-4.455 3.485 -4.455 3.485 -9 5 C-8.67 3.68 -8.34 2.36 -8 1 C-5.10765685 0.17361624 -3.11257569 0 0 0 Z " fill="#0C0817" transform="translate(69,46)"/>
<path d="M0 0 C0.33 0 0.66 0 1 0 C1 1.98 1 3.96 1 6 C1.66 6 2.32 6 3 6 C2.34 7.98 1.68 9.96 1 12 C0.01 11.67 -0.98 11.34 -2 11 C-1.34 7.37 -0.68 3.74 0 0 Z " fill="#20122B" transform="translate(93,125)"/>
<path d="M0 0 C0.99 0.33 1.98 0.66 3 1 C3.1875 3.8125 3.1875 3.8125 3 7 C2.01 7.99 1.02 8.98 0 10 C0 6.7 0 3.4 0 0 Z " fill="#0E040B" transform="translate(149,67)"/>
<path d="M0 0 C-2 2 -2 2 -3.9453125 2.1953125 C-5.96354167 2.13020833 -7.98177083 2.06510417 -10 2 C-10.33 1.34 -10.66 0.68 -11 0 C-3.57142857 -1.28571429 -3.57142857 -1.28571429 0 0 Z " fill="#060309" transform="translate(82,146)"/>
<path d="M0 0 C2.97 0 5.94 0 9 0 C5.55549263 2.29633824 3.06187717 2.54016485 -1 3 C-0.67 2.01 -0.34 1.02 0 0 Z " fill="#0C040D" transform="translate(118,73)"/>
<path d="M0 0 C-0.33 0.99 -0.66 1.98 -1 3 C-5.75 2.25 -5.75 2.25 -8 0 C-5.13822943 -1.43088528 -3.06624227 -0.59991697 0 0 Z " fill="#160F25" transform="translate(69,144)"/>
<path d="M0 0 C1.65 1.65 3.3 3.3 5 5 C3.1875 5.6875 3.1875 5.6875 1 6 C-0.75 4.5625 -0.75 4.5625 -2 3 C-1.34 2.67 -0.68 2.34 0 2 C0 1.34 0 0.68 0 0 Z " fill="#17142F" transform="translate(47,126)"/>
<path d="M0 0 C0 0.99 0 1.98 0 3 C-2.3125 3.6875 -2.3125 3.6875 -5 4 C-6.8125 2.5625 -6.8125 2.5625 -8 1 C-2.25 -1.125 -2.25 -1.125 0 0 Z " fill="#1E1839" transform="translate(60,36)"/>
<path d="M0 0 C0.99 0 1.98 0 3 0 C3.33 1.98 3.66 3.96 4 6 C3.01 5.67 2.02 5.34 1 5 C0.67 3.35 0.34 1.7 0 0 Z " fill="#090916" transform="translate(43,122)"/>
<path d="M0 0 C0.66 0.33 1.32 0.66 2 1 C-0.25 3.0625 -0.25 3.0625 -3 5 C-5.3125 4.75 -5.3125 4.75 -7 4 C-4.61426621 2.10786631 -2.92824652 0.97608217 0 0 Z " fill="#6A5DC6" transform="translate(53,40)"/>
<path d="M0 0 C1.9453125 -0.29296875 1.9453125 -0.29296875 4.125 -0.1875 C5.40375 -0.125625 6.6825 -0.06375 8 0 C4.55549263 2.29633824 2.06187717 2.54016485 -2 3 C-1.34 2.01 -0.68 1.02 0 0 Z " fill="#09050D" transform="translate(74,30)"/>
<path d="M0 0 C0.33 0.99 0.66 1.98 1 3 C1.99 3.66 2.98 4.32 4 5 C1.69 5.66 -0.62 6.32 -3 7 C-3 3 -3 3 -1.5 1.25 C-1.005 0.8375 -0.51 0.425 0 0 Z " fill="#461F40" transform="translate(145,122)"/>
<path d="M0 0 C0.33 0.66 0.66 1.32 1 2 C1.66 2.33 2.32 2.66 3 3 C2.34 3 1.68 3 1 3 C1 3.99 1 4.98 1 6 C-0.98 6.99 -0.98 6.99 -3 8 C-1.125 2.25 -1.125 2.25 0 0 Z " fill="#5661D6" transform="translate(24,50)"/>
<path d="M0 0 C-2.31856917 1.54571278 -4.50638429 2.79618552 -7 4 C-7 3.34 -7 2.68 -7 2 C-7.66 1.67 -8.32 1.34 -9 1 C-5.57367167 -0.61798838 -3.61944899 -1.34053666 0 0 Z " fill="#251734" transform="translate(93,50)"/>
<path d="M0 0 C2 0.6875 2 0.6875 4 2.6875 C1.69 3.0175 -0.62 3.3475 -3 3.6875 C-3.33 2.6975 -3.66 1.7075 -4 0.6875 C-2 -0.3125 -2 -0.3125 0 0 Z " fill="#241633" transform="translate(86,39.3125)"/>
</svg>
